# xmcd
#
# Track frame offsets:
#	150
#	14975
#	30022
#	48775
#	65962
#	82707
#	95795
#	110277
#	127750
#	142065
#	155007
#	169827
#	188765
#	202845
#	217337
#	233812
#	249455
#	265200
#
# Disc length: 3794 seconds
#
# Revision: 0
# Processed by: cddbd v1.5.2PL0 Copyright (c) Steve Scherf et al.
# Submitted via: dBpowerAMP V4.0
#
DISCID=fa0ed012
DTITLE=Various Artist - From Nashville With Love
DYEAR=1997
DGENRE=Country
TTITLE0=Wynonna-/ Change The World
TTITLE1=LeAnn Rimes-/ The Light In Your Eyes
TTITLE2=Tim McGraw-/ Don't Take The Girl
TTITLE3=Don McLean-/ Crying
TTITLE4=JoDee Messina-/ Another Shoulder At The Wheel
TTITLE5=Hal Ketchum-/ Stay Forever
TTITLE6=Bellamy Brothers-/ If I Said You Had A beatiful Body (Would You Hold It Against Me)
TTITLE7=The Judds-/ Love Can Build A Bridge
TTITLE8=Merle Haggard-/ Valentine
TTITLE9=Gretchen Peters-/ When You Are Old
TTITLE10=Sawyer Brown-/ Thank God For You
TTITLE11=Delbert McClinton-/ Have A Little Faith In Me
TTITLE12=Bob Woodruff-/ Everyday I Have To Cry
TTITLE13=Burnin' Daylight-/ Love Worth Fighting For
TTITLE14=Philip Claypool-/ The Strength Of A Woman
TTITLE15=David Kersh-/ Goodnight Sweetheart
TTITLE16=Perfect Stranger-/ You Have The Right To Remain Silent
TTITLE17=Jeff Wood-/ Between The Earth And The Stars
EXTD=
EXTT0=
EXTT1=
EXTT2=
EXTT3=
EXTT4=
EXTT5=
EXTT6=
EXTT7=
EXTT8=
EXTT9=
EXTT10=
EXTT11=
EXTT12=
EXTT13=
EXTT14=
EXTT15=
EXTT16=
EXTT17=
PLAYORDER=
